<?xml version="1.0" encoding="UTF-8" standalone="no"?>
<!DOCTYPE svg PUBLIC "-//W3C//DTD SVG 1.1//EN"
 "http://www.w3.org/Graphics/SVG/1.1/DTD/svg11.dtd">
<!-- Generated by graphviz version 2.38.0 (20140413.2041)
 -->
<!-- Title: dgp Pages: 1 -->
<svg width="139pt" height="222pt"
 viewBox="0.00 0.00 139.20 221.60" xmlns="http://www.w3.org/2000/svg" xmlns:xlink="http://www.w3.org/1999/xlink">
<g id="graph0" class="graph" transform="scale(1 1) rotate(0) translate(4 217.6)">
<title>dgp</title>
<polygon fill="white" stroke="none" points="-4,4 -4,-217.6 135.195,-217.6 135.195,4 -4,4"/>
<!-- p -->
<g id="node1" class="node"><title>p</title>
<g id="a_node1"><a xlink:title="price">
<polygon fill="LightSalmon" stroke="Black" points="54,-124.8 0,-124.8 0,-88.8 54,-88.8 54,-124.8"/>
<text text-anchor="middle" x="27" y="-103.2" font-family="Helvetica,sans-Serif" font-size="12.00">p</text>
</a>
</g>
</g>
<!-- q -->
<g id="node2" class="node"><title>q</title>
<g id="a_node2"><a xlink:title="realized demand">
<polygon fill="LightSalmon" stroke="Black" points="131.391,-36 2.6086,-36 2.6086,-0 131.391,-0 131.391,-36"/>
<text text-anchor="middle" x="67" y="-14.4" font-family="Helvetica,sans-Serif" font-size="12.00"><tspan><tspan dy="-3.75">q = β</tspan><tspan dy="3.75" style="font-size: 75%;" class="label_subscript">0</tspan><tspan dy="-3.75"> + β</tspan><tspan dy="3.75" style="font-size: 75%;" class="label_subscript">1</tspan><tspan dy="-3.75"> p + u</tspan></tspan></text>
</a>
</g>
</g>
<!-- p&#45;&gt;q -->
<g id="edge1" class="edge"><title>p&#45;&gt;q</title>
<path fill="none" stroke="black" d="M34.9027,-88.6511C40.6004,-76.2871 48.3963,-59.3701 54.8781,-45.3044"/>
<polygon fill="black" stroke="black" points="58.1071,-46.6602 59.1137,-36.1133 51.7497,-43.7304 58.1071,-46.6602"/>
<text text-anchor="middle" x="57.9909" y="-58.2" font-family="Times,serif" font-size="14.00">(&#45;)</text>
</g>
<!-- u -->
<g id="node3" class="node"><title>u</title>
<g id="a_node3"><a xlink:title="demand shock">
<ellipse fill="Lavender" stroke="Black" cx="66" cy="-195.6" rx="18" ry="18"/>
<text text-anchor="middle" x="66" y="-192" font-family="Helvetica,sans-Serif" font-size="12.00">u</text>
</a>
</g>
</g>
<!-- u&#45;&gt;p -->
<g id="edge3" class="edge"><title>u&#45;&gt;p</title>
<path fill="none" stroke="black" stroke-dasharray="5,2" d="M58.8468,-178.68C53.2723,-166.273 45.4109,-148.776 38.8937,-134.271"/>
<polygon fill="black" stroke="black" points="41.9322,-132.494 34.6412,-124.807 35.5471,-135.363 41.9322,-132.494"/>
<text text-anchor="middle" x="58.6079" y="-147" font-family="Times,serif" font-size="14.00">(+)</text>
</g>
<!-- u&#45;&gt;q -->
<g id="edge2" class="edge"><title>u&#45;&gt;q</title>
<path fill="none" stroke="black" stroke-dasharray="5,2" d="M68.9285,-177.562C69.7747,-171.869 70.5823,-165.478 71,-159.6 73.7937,-120.29 71.4754,-74.6669 69.3802,-46.3123"/>
<polygon fill="black" stroke="black" points="72.8694,-46.036 68.5992,-36.3398 65.8907,-46.5825 72.8694,-46.036"/>
<text text-anchor="middle" x="80.6079" y="-102.6" font-family="Times,serif" font-size="14.00">(+)</text>
</g>
</g>
</svg>

